<?xml version="1.0" encoding="utf-8"?>

<!DOCTYPE svg PUBLIC "-//W3C//DTD SVG 1.0//EN" "http://www.w3.org/TR/2001/REC-SVG-20010904/DTD/svg10.dtd">
<!-- Uploaded to: SVG Repo, www.svgrepo.com, Generator: SVG Repo Mixer Tools -->
<svg version="1.0" id="Layer_1" xmlns="http://www.w3.org/2000/svg" xmlns:xlink="http://www.w3.org/1999/xlink" 
	width="800px" height="800px" viewBox="0 0 64 64" enable-background="new 0 0 64 64" xml:space="preserve">
<g>
	<path fill="#231F20" d="M48,6c-4.418,0-8.418,1.791-11.313,4.687l-3.979,3.961c-0.391,0.391-1.023,0.391-1.414,0
		c0,0-3.971-3.97-3.979-3.961C24.418,7.791,20.418,6,16,6C7.163,6,0,13.163,0,22c0,3.338,1.024,6.436,2.773,9
		c0,0,0.734,1.164,1.602,2.031s24.797,24.797,24.797,24.797C29.953,58.609,30.977,59,32,59s2.047-0.391,2.828-1.172
		c0,0,23.93-23.93,24.797-24.797S61.227,31,61.227,31C62.976,28.436,64,25.338,64,22C64,13.163,56.837,6,48,6z M58.714,30.977
		c0,0-0.612,0.75-1.823,1.961S33.414,56.414,33.414,56.414C33.023,56.805,32.512,57,32,57s-1.023-0.195-1.414-0.586
		c0,0-22.266-22.266-23.477-23.477s-1.823-1.961-1.823-1.961C3.245,28.545,2,25.424,2,22C2,14.268,8.268,8,16,8
		c3.866,0,7.366,1.566,9.899,4.101l0.009-0.009l4.678,4.677c0.781,0.781,2.047,0.781,2.828,0l4.678-4.677l0.009,0.009
		C40.634,9.566,44.134,8,48,8c7.732,0,14,6.268,14,14C62,25.424,60.755,28.545,58.714,30.977z"/>
	<path fill="#231F20" d="M48,12c-0.553,0-1,0.447-1,1s0.447,1,1,1c4.418,0,8,3.582,8,8c0,0.553,0.447,1,1,1s1-0.447,1-1
		C58,16.478,53.522,12,48,12z"/>
</g>
</svg>